<?xml version="1.0" encoding="UTF-8" standalone="no"?>
<!DOCTYPE svg PUBLIC "-//W3C//DTD SVG 1.1//EN" "http://www.w3.org/Graphics/SVG/1.1/DTD/svg11.dtd">
<svg width="100%" height="100%" viewBox="0 0 200 200" version="1.1" xmlns="http://www.w3.org/2000/svg" xmlns:xlink="http://www.w3.org/1999/xlink" xml:space="preserve" xmlns:serif="http://www.serif.com/" style="fill-rule:evenodd;clip-rule:evenodd;stroke-linejoin:round;stroke-miterlimit:2;">
    <rect id="Tavola-da-disegno1" serif:id="Tavola da disegno1" x="0" y="0" width="200" height="200" style="fill:none;"/>
    <clipPath id="_clip1">
        <rect id="Tavola-da-disegno11" serif:id="Tavola da disegno1" x="0" y="0" width="200" height="200"/>
    </clipPath>
    <g clip-path="url(#_clip1)">
        <g id="cog" transform="matrix(11.9037,0,0,11.9037,-19.0519,-19.04)">
            <path d="M16.783,10C16.783,8.951 17.429,8.125 18.4,7.557C18.224,6.973 17.993,6.412 17.708,5.885C16.619,6.17 15.738,5.744 14.997,5.002C14.256,4.262 14.029,3.381 14.314,2.291C13.787,2.006 13.226,1.773 12.642,1.6C12.074,2.57 11.047,3.215 10,3.215C8.952,3.215 7.926,2.57 7.357,1.6C6.772,1.773 6.213,2.006 5.686,2.291C5.971,3.381 5.745,4.262 5.002,5.002C4.262,5.744 3.381,6.17 2.291,5.885C2.006,6.412 1.774,6.973 1.6,7.557C2.57,8.125 3.215,8.951 3.215,10C3.215,11.047 2.57,12.074 1.6,12.643C1.775,13.227 2.006,13.787 2.291,14.315C3.381,14.03 4.262,14.256 5.002,14.997C5.743,15.739 5.971,16.62 5.686,17.708C6.213,17.993 6.773,18.226 7.358,18.401C7.926,17.428 8.953,16.784 10.001,16.784C11.048,16.784 12.075,17.429 12.644,18.401C13.228,18.225 13.788,17.993 14.316,17.708C14.031,16.62 14.257,15.739 14.999,14.997C15.74,14.257 16.621,13.831 17.71,14.114C17.995,13.587 18.227,13.028 18.402,12.442C17.429,11.873 16.783,11.047 16.783,10ZM10,13.652C7.982,13.652 6.347,12.017 6.347,10C6.347,7.982 7.983,6.346 10,6.346C12.018,6.346 13.652,7.983 13.652,10C13.652,12.018 12.018,13.652 10,13.652Z" style="fill:rgb(102, 102, 102);fill-rule:nonzero;"/>
        </g>
    </g>
</svg>
