<?xml version="1.0" encoding="UTF-8" standalone="no"?>
<!DOCTYPE svg PUBLIC "-//W3C//DTD SVG 1.1//EN" "http://www.w3.org/Graphics/SVG/1.1/DTD/svg11.dtd">
<svg width="100%" height="100%" viewBox="0 0 200 200" version="1.1" xmlns="http://www.w3.org/2000/svg" xmlns:xlink="http://www.w3.org/1999/xlink" xml:space="preserve" xmlns:serif="http://www.serif.com/" style="fill-rule:evenodd;clip-rule:evenodd;stroke-linejoin:round;stroke-miterlimit:2;">
    <rect id="Tavola-da-disegno1" serif:id="Tavola da disegno1" x="0" y="0" width="200" height="200" style="fill:none;"/>
    <clipPath id="_clip1">
        <rect id="Tavola-da-disegno11" serif:id="Tavola da disegno1" x="0" y="0" width="200" height="200"/>
    </clipPath>
    <g clip-path="url(#_clip1)">
        <g id="user" transform="matrix(10.1066,0,0,10.1066,-1.06613,-2.13225)">
            <path d="M7.725,2.146C6.709,2.902 6.436,4.099 6.486,4.736C6.55,5.515 6.708,6.529 6.708,6.529C6.708,6.529 6.395,6.699 6.395,7.383C6.504,9.1 7.078,8.359 7.196,9.112C7.48,10.926 8.129,10.603 8.129,11.593C8.129,13.242 7.449,14.013 5.326,14.927C3.196,15.845 1,17 1,19L1,20L19,20L19,19C19,17 16.803,15.845 14.672,14.928C12.549,14.014 11.871,13.244 11.871,11.594C11.871,10.604 12.518,10.927 12.803,9.113C12.922,8.36 13.495,9.101 13.606,7.384C13.606,6.7 13.292,6.53 13.292,6.53C13.292,6.53 13.45,5.516 13.513,4.737C13.578,3.92 13.115,2.176 11.213,1.641C10.88,1.301 10.655,0.76 11.679,0.217C9.439,0.112 8.918,1.284 7.725,2.146Z" style="fill:rgb(102, 102, 102);fill-rule:nonzero;"/>
        </g>
    </g>
</svg>
