<?xml version="1.0" encoding="UTF-8" standalone="no"?>
<!DOCTYPE svg PUBLIC "-//W3C//DTD SVG 1.1//EN" "http://www.w3.org/Graphics/SVG/1.1/DTD/svg11.dtd">
<svg width="100%" height="100%" viewBox="0 0 200 200" version="1.1" xmlns="http://www.w3.org/2000/svg" xmlns:xlink="http://www.w3.org/1999/xlink" xml:space="preserve" xmlns:serif="http://www.serif.com/" style="fill-rule:evenodd;clip-rule:evenodd;stroke-linejoin:round;stroke-miterlimit:2;">
    <rect id="Tavola-da-disegno1" serif:id="Tavola da disegno1" x="0" y="0" width="200" height="200" style="fill:none;"/>
    <clipPath id="_clip1">
        <rect id="Tavola-da-disegno11" serif:id="Tavola da disegno1" x="0" y="0" width="200" height="200"/>
    </clipPath>
    <g clip-path="url(#_clip1)">
        <g id="login" transform="matrix(11.1111,0,0,11.1111,-11.1111,-11.1111)">
            <path d="M14,10L8,5L8,8L1,8L1,12L8,12L8,15L14,10ZM17,17L9,17L9,19L17,19C18.1,19 19,18.1 19,17L19,3C19,1.9 18.1,1 17,1L9,1L9,3L17,3L17,17Z" style="fill:rgb(102, 102, 102);fill-rule:nonzero;"/>
        </g>
    </g>
</svg>
