<?xml version="1.0" encoding="UTF-8" standalone="no"?>
<!DOCTYPE svg PUBLIC "-//W3C//DTD SVG 1.1//EN" "http://www.w3.org/Graphics/SVG/1.1/DTD/svg11.dtd">
<svg width="100%" height="100%" viewBox="0 0 200 200" version="1.1" xmlns="http://www.w3.org/2000/svg" xmlns:xlink="http://www.w3.org/1999/xlink" xml:space="preserve" xmlns:serif="http://www.serif.com/" style="fill-rule:evenodd;clip-rule:evenodd;stroke-linejoin:round;stroke-miterlimit:2;">
    <rect id="Tavola-da-disegno1" serif:id="Tavola da disegno1" x="0" y="0" width="200" height="200" style="fill:none;"/>
    <clipPath id="_clip1">
        <rect id="Tavola-da-disegno11" serif:id="Tavola da disegno1" x="0" y="0" width="200" height="200"/>
    </clipPath>
    <g clip-path="url(#_clip1)">
        <g id="new-message" transform="matrix(11.1138,0,0,11.1138,-11.1124,-11.1627)">
            <path d="M18.174,1.826C17.072,0.724 16.092,1.049 16.092,1.049L7.453,9.681L6,14L10.317,12.546L18.951,3.908C18.951,3.908 19.275,2.928 18.174,1.826ZM10.605,11.605L10.134,12.075L8.661,12.575C8.557,12.335 8.427,12.098 8.163,11.835C7.899,11.571 7.663,11.441 7.423,11.337L7.923,9.864L8.394,9.394C8.394,9.394 9.17,9.305 9.931,10.067C10.693,10.828 10.605,11.605 10.605,11.605ZM16,17L3,17L3,4L8,4L10,2L3,2C1.9,2 1,2.9 1,4L1,17C1,18.1 1.9,19 3,19L16,19C17.1,19 18,18.1 18,17L18,10L16,12L16,17Z" style="fill:rgb(102, 102, 102);fill-rule:nonzero;"/>
        </g>
    </g>
</svg>
