<?xml version="1.0" encoding="UTF-8" standalone="no"?>
<!DOCTYPE svg PUBLIC "-//W3C//DTD SVG 1.1//EN" "http://www.w3.org/Graphics/SVG/1.1/DTD/svg11.dtd">
<svg width="100%" height="100%" viewBox="0 0 200 200" version="1.1" xmlns="http://www.w3.org/2000/svg" xmlns:xlink="http://www.w3.org/1999/xlink" xml:space="preserve" xmlns:serif="http://www.serif.com/" style="fill-rule:evenodd;clip-rule:evenodd;stroke-linejoin:round;stroke-miterlimit:2;">
    <rect id="Tavola-da-disegno1" serif:id="Tavola da disegno1" x="0" y="0" width="200" height="200" style="fill:none;"/>
    <g transform="matrix(3.83094,0,0,3.83094,-137.872,-310.264)">
        <g id="archive">
            <path d="M62,81.25C76.212,81.25 87.75,92.788 87.75,107C87.75,121.212 76.212,132.75 62,132.75C47.788,132.75 36.25,121.212 36.25,107C36.25,92.788 47.788,81.25 62,81.25ZM62,82.75C48.616,82.75 37.75,93.616 37.75,107C37.75,120.384 48.616,131.25 62,131.25C75.384,131.25 86.25,120.384 86.25,107C86.25,93.616 75.384,82.75 62,82.75ZM62,123.458C57.879,123.458 54.006,121.853 51.091,118.941C48.179,116.026 46.572,112.152 46.572,108.029C46.572,103.907 48.179,100.033 51.091,97.118C52.019,96.19 53.519,96.19 54.447,97.118C55.375,98.046 55.375,99.546 54.447,100.474C52.43,102.494 51.319,105.176 51.319,108.029C51.319,110.882 52.43,113.567 54.447,115.585C56.465,117.602 59.145,118.711 62,118.711C64.855,118.711 67.535,117.6 69.553,115.585C71.573,113.567 72.681,110.885 72.681,108.029C72.681,105.174 71.57,102.492 69.553,100.474C68.625,99.546 68.625,98.046 69.553,97.118C70.481,96.19 71.981,96.19 72.909,97.118C75.821,100.035 77.428,103.909 77.428,108.029C77.428,112.15 75.821,116.026 72.909,118.941C69.994,121.853 66.121,123.458 62,123.458ZM62,105.483C60.687,105.483 59.626,104.419 59.626,103.109L59.626,91.241C59.626,89.931 60.687,88.867 62,88.867C63.313,88.867 64.374,89.931 64.374,91.241L64.374,103.109C64.374,104.419 63.313,105.483 62,105.483Z" style="fill:rgb(39, 200, 64);"/>
        </g>
    </g>
</svg>
