<?xml version="1.0" encoding="UTF-8" standalone="no"?>
<!DOCTYPE svg PUBLIC "-//W3C//DTD SVG 1.1//EN" "http://www.w3.org/Graphics/SVG/1.1/DTD/svg11.dtd">
<svg width="100%" height="100%" viewBox="0 0 200 200" version="1.1" xmlns="http://www.w3.org/2000/svg" xmlns:xlink="http://www.w3.org/1999/xlink" xml:space="preserve" xmlns:serif="http://www.serif.com/" style="fill-rule:evenodd;clip-rule:evenodd;stroke-linejoin:round;stroke-miterlimit:2;">
    <rect id="Tavola-da-disegno1" serif:id="Tavola da disegno1" x="0" y="0" width="200" height="200" style="fill:none;"/>
    <clipPath id="_clip1">
        <rect id="Tavola-da-disegno11" serif:id="Tavola da disegno1" x="0" y="0" width="200" height="200"/>
    </clipPath>
    <g clip-path="url(#_clip1)">
        <g id="rocket" transform="matrix(11.3645,0,0,11.3645,-9.89553,-19.3194)">
            <path d="M11.933,13.069C11.933,13.069 18.992,7.975 18.209,2.145C18.192,2.018 18.15,1.932 18.097,1.877C18.043,1.822 17.96,1.779 17.834,1.762C12.137,0.961 7.16,8.184 7.16,8.184C2.842,7.667 3.156,8.528 1.186,13.26C0.809,14.162 1.42,14.473 2.09,14.219C2.76,13.967 4.238,13.408 4.238,13.408L6.828,16.056C6.828,16.056 6.282,17.57 6.035,18.255C5.787,18.941 6.09,19.566 6.973,19.181C11.597,17.165 12.439,17.487 11.933,13.069ZM12.942,7.153C12.344,6.54 12.344,5.549 12.942,4.936C13.54,4.325 14.509,4.325 15.108,4.936C15.706,5.547 15.706,6.539 15.108,7.153C14.509,7.764 13.539,7.764 12.942,7.153Z" style="fill:rgb(102, 102, 102);fill-rule:nonzero;"/>
        </g>
    </g>
</svg>
